<?xml version="1.0" encoding="utf-8"?>
<!-- Generator: Adobe Illustrator 15.0.2, SVG Export Plug-In  -->
<!DOCTYPE svg PUBLIC "-//W3C//DTD SVG 1.1//EN" "http://www.w3.org/Graphics/SVG/1.1/DTD/svg11.dtd" [
	<!ENTITY ns_flows "http://ns.adobe.com/Flows/1.0/">
]>
<svg version="1.1"
	 xmlns="http://www.w3.org/2000/svg" xmlns:xlink="http://www.w3.org/1999/xlink" xmlns:a="http://ns.adobe.com/AdobeSVGViewerExtensions/3.0/"
	 x="0px" y="0px" width="546px" height="61px" viewBox="-0.542 -0.445 546 61"
	 overflow="visible" enable-background="new -0.542 -0.445 546 61" xml:space="preserve">
<defs>
</defs>
<path fill="#EDBB5F" d="M9.478,16.797l-0.12,13.257c0,5.159,0.159,8.518,0.48,10.079l0.12,0.779c0.04,0.281,0.549,0.551,1.53,0.811
	c0.979,0.26,1.89,0.43,2.729,0.51l-0.18,1.74c-1.92-0.121-4.259-0.181-7.019-0.181c-2.759,0-5.099,0.06-7.019,0.181l0.18-1.74
	c0.84-0.08,1.74-0.25,2.7-0.51s1.459-0.529,1.5-0.811c0.319-1.398,0.479-4.199,0.479-8.398c0-6.798-0.16-10.957-0.479-12.478
	l-3.839-1.14l-0.12-1.56c2.559,0,5.198-0.36,7.918-1.08L9.478,16.797z M9.238,9.088c-0.6,0.621-1.34,0.93-2.22,0.93
	c-0.88,0-1.62-0.31-2.219-0.93c-0.6-0.619-0.9-1.379-0.9-2.279s0.3-1.65,0.9-2.25c0.6-0.6,1.339-0.9,2.219-0.9
	c0.879,0,1.62,0.3,2.22,0.9c0.6,0.6,0.9,1.35,0.9,2.25S9.838,8.469,9.238,9.088z"/>
<path fill="#EDBB5F" d="M25.555,21.776l-0.06,8.278c0,5.159,0.159,8.518,0.479,10.079l0.12,0.779c0.04,0.281,0.489,0.551,1.35,0.811
	c0.859,0.26,1.689,0.43,2.489,0.51l-0.18,1.74c-1.92-0.121-4.12-0.181-6.599-0.181c-2.48,0-4.679,0.06-6.599,0.181l0.18-1.74
	c0.759-0.08,1.569-0.25,2.43-0.51c0.859-0.26,1.31-0.529,1.35-0.811c0.32-1.398,0.48-4.199,0.48-8.398
	c0-6.798-0.16-10.957-0.48-12.478l-3.839-1.14l-0.12-1.56c2.559,0,5.198-0.36,7.918-1.08l1.14,0.54v2.879
	c4.439-2.319,8.298-3.479,11.578-3.479c2,0,3.519,0.4,4.559,1.2c1.04,0.801,1.56,2.3,1.56,4.5v8.158c0,5.159,0.14,8.518,0.42,10.079
	l0.18,0.779c0.04,0.281,0.489,0.551,1.35,0.811c0.86,0.26,1.689,0.43,2.49,0.51l-0.18,1.74c-1.919-0.121-4.119-0.181-6.599-0.181
	c-2.48,0-4.679,0.06-6.599,0.181l0.18-1.74c0.759-0.08,1.569-0.25,2.43-0.51c0.859-0.26,1.31-0.529,1.35-0.811
	c0.32-1.398,0.48-5.018,0.48-10.858v-5.819c0-1.56-0.46-2.64-1.38-3.239c-0.92-0.6-2.48-0.9-4.679-0.9
	C30.554,20.097,28.154,20.657,25.555,21.776z"/>
<path fill="#EDBB5F" d="M74.026,40.374c-3.32,2.639-6.939,3.959-10.858,3.959c-3.92,0-6.939-1.239-9.059-3.719
	c-2.12-2.48-3.179-5.709-3.179-9.689c0-3.979,1.229-7.428,3.689-10.348c2.459-2.919,5.888-4.379,10.288-4.379
	c1.8,0,3.409,0.291,4.829,0.87c1.419,0.58,2.43,1.169,3.029,1.77c0.6,0.6,0.9,1.08,0.9,1.44c0,1.6-0.48,3.059-1.439,4.379h-1.44
	c-0.48-1.32-1.29-2.52-2.43-3.599c-1.14-1.08-2.609-1.62-4.409-1.62c-2.48,0-4.39,1.109-5.729,3.329
	c-1.34,2.22-2.01,4.94-2.01,8.158c0,3.221,0.78,5.67,2.34,7.35s3.739,2.52,6.539,2.52c2.799,0,5.539-0.8,8.219-2.4L74.026,40.374z"
	/>
<path fill="#EDBB5F" d="M85.844,0.54c-0.081,5-0.12,12.318-0.12,21.956c0,9.639,0.22,15.778,0.66,18.417
	c0.04,0.281,0.56,0.561,1.56,0.84c1,0.281,1.879,0.441,2.64,0.48l-0.18,1.74c-1.919-0.121-4.239-0.181-6.958-0.181
	c-2.72,0-5.039,0.06-6.959,0.181l0.18-1.74c0.84-0.08,1.729-0.25,2.669-0.51c0.939-0.26,1.43-0.529,1.47-0.811
	c0.279-2.599,0.42-7.598,0.42-14.997c0-12.037-0.12-19.077-0.36-21.116l-0.12-1.02l-3.839-1.14l-0.12-1.56
	c2.559,0,5.198-0.36,7.918-1.08L85.844,0.54z"/>
<path fill="#EDBB5F" d="M102.88,44.333c-4.079,0-6.119-2.079-6.119-6.239v-8.039c0-5.358-0.141-8.698-0.42-10.018l-3.54-1.14
	l-0.12-1.56c2.359,0,4.898-0.36,7.619-1.08l1.14,0.54c-0.12,7.159-0.18,13.658-0.18,19.496c0,2.68,1.62,4.02,4.859,4.02
	c1.359,0,2.819-0.229,4.379-0.689c1.56-0.459,2.799-0.97,3.72-1.53c0.159-2.159,0.24-4.698,0.24-7.619
	c0-5.438-0.16-8.917-0.48-10.438l-3.779-1.14l-0.12-1.56c2.559,0,5.199-0.36,7.919-1.08l1.14,0.54c-0.12,3-0.18,7.959-0.18,14.877
	l0.18,7.02c0,0.68,0.27,1.209,0.81,1.59c0.54,0.38,1.069,0.62,1.589,0.719c0.52,0.101,1.239,0.171,2.16,0.211l-0.18,1.739
	c-1.44,0.12-3.62,0.479-6.539,1.079c-1.2-0.519-2.02-1.719-2.459-3.599C110.679,43.034,106.799,44.333,102.88,44.333z"/>
<path fill="#EDBB5F" d="M143.252,17.277l0.84,0.42c0,2.6,0.12,4.58,0.36,5.939l-1.56,0.54c-0.52-2.04-1.25-3.458-2.189-4.259
	c-0.94-0.799-2.13-1.2-3.569-1.2c-1.44,0-2.58,0.381-3.419,1.14c-0.84,0.76-1.26,1.66-1.26,2.699c0,1.8,1.039,3.28,3.119,4.439
	l6.119,3.359c2.64,1.479,3.959,3.62,3.959,6.419c0,2.039-0.81,3.809-2.429,5.309c-1.62,1.5-3.93,2.25-6.929,2.25
	c-3,0-6.08-0.5-9.239-1.5c0.48-2.799,0.72-5.1,0.72-6.898l1.56-0.54c0.36,1.439,0.63,2.42,0.81,2.939
	c0.18,0.521,0.5,1.16,0.959,1.919c0.459,0.761,1.05,1.26,1.77,1.5c0.72,0.24,1.779,0.36,3.179,0.36c1.399,0,2.559-0.399,3.479-1.2
	c0.919-0.799,1.38-1.759,1.38-2.879c0-1.68-0.94-3.039-2.82-4.08l-6.479-3.599c-2.64-1.399-3.959-3.54-3.959-6.419
	c0-2.04,0.78-3.839,2.339-5.399c1.56-1.56,3.739-2.34,6.539-2.34C139.332,16.197,141.572,16.557,143.252,17.277z"/>
<path fill="#EDBB5F" d="M158.369,16.797l-0.12,13.257c0,5.159,0.159,8.518,0.48,10.079l0.12,0.779
	c0.04,0.281,0.549,0.551,1.53,0.811c0.979,0.26,1.89,0.43,2.729,0.51l-0.18,1.74c-1.92-0.121-4.259-0.181-7.019-0.181
	c-2.759,0-5.099,0.06-7.019,0.181l0.18-1.74c0.84-0.08,1.74-0.25,2.7-0.51s1.459-0.529,1.5-0.811
	c0.319-1.398,0.479-4.199,0.479-8.398c0-6.798-0.16-10.957-0.479-12.478l-3.839-1.14l-0.12-1.56c2.559,0,5.198-0.36,7.918-1.08
	L158.369,16.797z M158.129,9.088c-0.6,0.621-1.34,0.93-2.22,0.93c-0.88,0-1.62-0.31-2.219-0.93c-0.6-0.619-0.9-1.379-0.9-2.279
	s0.3-1.65,0.9-2.25c0.6-0.6,1.339-0.9,2.219-0.9c0.879,0,1.62,0.3,2.22,0.9c0.6,0.6,0.9,1.35,0.9,2.25S158.729,8.469,158.129,9.088z
	"/>
<path fill="#EDBB5F" d="M179.544,39.713c4.239-12.997,6.319-19.497,6.239-19.497c0.039-0.08,0.06-0.18,0.06-0.3
	c0-0.879-1.101-1.459-3.3-1.739l-0.18-1.74c1.359,0.12,2.799,0.18,4.319,0.18l6.119-0.18l0.18,1.74c-2.04,0.28-3.3,1.02-3.779,2.219
	c-2.28,5.279-5.08,13.078-8.399,23.396l-4.319,0.54c-3.24-9.998-5.739-17.097-7.499-21.296l-0.959-2.399
	c-0.521-1.32-1.74-2.139-3.66-2.459l-0.18-1.74c2.759,0.12,4.879,0.18,6.359,0.18l6.239-0.18l0.18,1.74c-1.2,0.12-2.1,0.36-2.7,0.72
	c-0.6,0.36-0.9,0.72-0.9,1.08c0,0.041,0.379,1.26,1.14,3.66C175.265,26.036,176.944,31.395,179.544,39.713z"/>
<path fill="#EDBB5F" d="M206.359,44.333c-4.239,0-7.438-1.209-9.598-3.629s-3.239-5.64-3.239-9.658c0-4.02,1.189-7.5,3.569-10.439
	c2.379-2.939,5.969-4.409,10.768-4.409c2.439,0,4.568,0.86,6.389,2.58c1.819,1.72,2.729,4.28,2.729,7.679l-2.04,2.459
	c-0.24-0.039-2.129-0.06-5.669-0.06s-7.089,0.141-10.648,0.42v0.54c0,3.64,0.759,6.369,2.279,8.188c1.52,1.82,3.6,2.729,6.239,2.729
	c2.639,0,5.418-0.639,8.338-1.92l0.72,1.801C213.118,43.093,209.839,44.333,206.359,44.333z M211.579,24.596
	c0-1.839-0.52-3.209-1.56-4.109c-1.041-0.9-2.2-1.35-3.479-1.35c-1.88,0-3.5,0.741-4.859,2.22c-1.36,1.48-2.26,3.299-2.699,5.459
	l12.418-0.48C211.519,25.736,211.579,25.156,211.579,24.596z"/>
<path fill="#6D6D70" d="M241.454,40.433c-2.76,2.601-5.78,3.899-9.059,3.899c-3.28,0-5.969-1.189-8.068-3.569
	c-2.1-2.379-3.15-5.778-3.15-10.198c0-4.419,1.25-7.928,3.75-10.528c2.499-2.599,5.588-3.899,9.269-3.899
	c1.999,0,4.399,0.7,7.199,2.1c0-7.398-0.12-11.938-0.36-13.617l-0.12-0.84l-3.839-1.14l-0.12-1.56c2.559,0,5.199-0.36,7.918-1.08
	l1.14,0.54c-0.081,5-0.12,12.079-0.12,21.236c0,9.159,0.04,14.398,0.12,15.717c0.08,1.319,0.249,2.15,0.51,2.489
	c0.26,0.34,0.649,0.591,1.17,0.75c0.84,0.24,1.819,0.4,2.939,0.48l-0.18,1.739c-1.439,0.12-3.62,0.479-6.539,1.079
	C242.713,43.513,241.893,42.313,241.454,40.433z M235.754,19.797c-3.16,0-5.489,1.03-6.989,3.089c-1.5,2.06-2.25,4.61-2.25,7.648
	c0,3.04,0.66,5.47,1.979,7.289c1.32,1.82,3.199,2.729,5.639,2.729c2.439,0,4.759-0.699,6.958-2.1c0.2-3.199,0.3-9.059,0.3-17.577
	C239.313,20.157,237.434,19.797,235.754,19.797z"/>
<path fill="#6D6D70" d="M266.528,44.333c-4.239,0-7.438-1.209-9.598-3.629s-3.239-5.64-3.239-9.658c0-4.02,1.189-7.5,3.569-10.439
	c2.379-2.939,5.969-4.409,10.768-4.409c2.439,0,4.568,0.86,6.389,2.58c1.819,1.72,2.729,4.28,2.729,7.679l-2.04,2.459
	c-0.24-0.039-2.129-0.06-5.669-0.06s-7.089,0.141-10.648,0.42v0.54c0,3.64,0.759,6.369,2.279,8.188c1.52,1.82,3.6,2.729,6.239,2.729
	c2.639,0,5.418-0.639,8.338-1.92l0.72,1.801C273.287,43.093,270.008,44.333,266.528,44.333z M271.748,24.596
	c0-1.839-0.52-3.209-1.56-4.109c-1.041-0.9-2.2-1.35-3.479-1.35c-1.88,0-3.5,0.741-4.859,2.22c-1.36,1.48-2.26,3.299-2.699,5.459
	l12.418-0.48C271.688,25.736,271.748,25.156,271.748,24.596z"/>
<path fill="#6D6D70" d="M293.883,39.713c4.239-12.997,6.319-19.497,6.239-19.497c0.039-0.08,0.061-0.18,0.061-0.3
	c0-0.879-1.101-1.459-3.3-1.739l-0.18-1.74c1.358,0.12,2.799,0.18,4.319,0.18l6.118-0.18l0.181,1.74
	c-2.04,0.28-3.3,1.02-3.779,2.219c-2.28,5.279-5.08,13.078-8.399,23.396l-4.318,0.54c-3.24-9.998-5.739-17.097-7.499-21.296
	l-0.959-2.399c-0.521-1.32-1.74-2.139-3.66-2.459l-0.18-1.74c2.759,0.12,4.879,0.18,6.358,0.18l6.239-0.18l0.18,1.74
	c-1.2,0.12-2.1,0.36-2.699,0.72c-0.601,0.36-0.9,0.72-0.9,1.08c0,0.041,0.38,1.26,1.14,3.66
	C289.604,26.036,291.284,31.395,293.883,39.713z"/>
<path fill="#6D6D70" d="M320.699,44.333c-4.239,0-7.438-1.209-9.599-3.629c-2.159-2.42-3.239-5.64-3.239-9.658
	c0-4.02,1.189-7.5,3.569-10.439c2.379-2.939,5.969-4.409,10.769-4.409c2.438,0,4.568,0.86,6.389,2.58
	c1.819,1.72,2.729,4.28,2.729,7.679l-2.04,2.459c-0.239-0.039-2.129-0.06-5.669-0.06c-3.539,0-7.089,0.141-10.647,0.42v0.54
	c0,3.64,0.759,6.369,2.279,8.188c1.52,1.82,3.6,2.729,6.239,2.729c2.639,0,5.418-0.639,8.338-1.92l0.72,1.801
	C327.457,43.093,324.178,44.333,320.699,44.333z M325.917,24.596c0-1.839-0.52-3.209-1.56-4.109c-1.04-0.9-2.2-1.35-3.479-1.35
	c-1.88,0-3.5,0.741-4.859,2.22c-1.359,1.48-2.26,3.299-2.699,5.459l12.418-0.48C325.858,25.736,325.917,25.156,325.917,24.596z"/>
<path fill="#6D6D70" d="M343.674,0.54c-0.081,5-0.12,12.318-0.12,21.956c0,9.639,0.22,15.778,0.66,18.417
	c0.039,0.281,0.56,0.561,1.56,0.84c0.999,0.281,1.879,0.441,2.64,0.48l-0.181,1.74c-1.919-0.121-4.239-0.181-6.958-0.181
	c-2.721,0-5.039,0.06-6.959,0.181l0.18-1.74c0.84-0.08,1.729-0.25,2.67-0.51c0.939-0.26,1.43-0.529,1.47-0.811
	c0.279-2.599,0.42-7.598,0.42-14.997c0-12.037-0.12-19.077-0.36-21.116l-0.12-1.02l-3.839-1.14l-0.12-1.56
	c2.559,0,5.198-0.36,7.919-1.08L343.674,0.54z"/>
<path fill="#6D6D70" d="M365.809,16.197c4.56,0,7.879,1.161,9.959,3.479c2.079,2.32,3.119,5.549,3.119,9.688
	c0,4.139-1.19,7.668-3.569,10.588c-2.38,2.92-5.849,4.379-10.408,4.379s-7.879-1.149-9.958-3.449c-2.08-2.3-3.12-5.509-3.12-9.629
	c0-4.118,1.19-7.658,3.57-10.618C357.781,17.677,361.25,16.197,365.809,16.197z M365.509,19.137c-1.64,0-3.06,0.411-4.259,1.23
	c-1.2,0.82-2.08,1.85-2.64,3.089c-1.08,2.28-1.62,4.46-1.62,6.539c0,3.279,0.66,6.009,1.98,8.189c1.319,2.18,3.398,3.27,6.238,3.27
	c1.52,0,2.859-0.351,4.02-1.051c1.159-0.699,2.04-1.609,2.64-2.729c1.159-2.079,1.779-4.159,1.859-6.239
	C373.728,23.237,370.989,19.137,365.509,19.137z"/>
<path fill="#6D6D70" d="M395.444,59.57c-1.92-0.12-4.239-0.181-6.959-0.181s-5.039,0.061-6.959,0.181l0.181-1.739
	c2.679-0.24,4.059-0.621,4.139-1.141c0.48-2.279,0.72-7.139,0.72-14.577c0-11.998-0.119-19.017-0.359-21.056l-0.12-1.02l-3.839-1.14
	l-0.12-1.56c2.52,0,5.138-0.36,7.858-1.08l1.14,0.54v2.939c3.119-2.359,6.299-3.54,9.538-3.54s5.858,1.08,7.859,3.24
	c1.999,2.159,2.999,5.549,2.999,10.168s-1.26,8.229-3.779,10.828c-2.52,2.601-5.6,3.899-9.238,3.899c-2.64,0-5.12-0.639-7.438-1.92
	c0.039,8.958,0.159,13.717,0.359,14.277c0.08,0.52,1.479,0.9,4.199,1.141L395.444,59.57z M396.583,41.153
	c3.199,0,5.599-1.069,7.199-3.209c1.599-2.139,2.399-4.689,2.399-7.649c0-2.959-0.69-5.419-2.07-7.379
	c-1.379-1.959-3.449-2.939-6.208-2.939c-1.08,0-2.32,0.201-3.72,0.6c-1.4,0.4-2.439,0.82-3.119,1.26v18.297
	C392.984,40.813,394.824,41.153,396.583,41.153z"/>
<path fill="#6D6D70" d="M441.515,30.055c0,5.159,0.14,8.518,0.42,10.079l0.181,0.779c0.039,0.281,0.489,0.551,1.35,0.811
	c0.859,0.26,1.688,0.43,2.489,0.51l-0.18,1.74c-1.92-0.121-4.12-0.181-6.6-0.181s-4.679,0.06-6.599,0.181l0.181-1.74
	c0.759-0.08,1.568-0.25,2.429-0.51s1.31-0.529,1.351-0.811c0.319-1.398,0.479-5.018,0.479-10.858v-5.819
	c0-1.56-0.46-2.64-1.38-3.239c-0.92-0.6-2.02-0.9-3.299-0.9c-1.281,0-2.28,0.051-3,0.15c-0.72,0.101-1.36,0.23-1.92,0.39
	c-0.76,0.201-1.799,0.58-3.119,1.14v8.278c0,4.959,0.159,8.319,0.479,10.079l0.181,0.779c0.039,0.281,0.489,0.551,1.35,0.811
	c0.859,0.26,1.689,0.43,2.489,0.51l-0.18,1.74c-1.92-0.121-4.119-0.181-6.599-0.181c-2.48,0-4.68,0.06-6.599,0.181l0.18-1.74
	c0.759-0.08,1.569-0.25,2.43-0.51c0.859-0.26,1.31-0.529,1.35-0.811c0.279-1.398,0.42-4.199,0.42-8.398
	c0-6.798-0.16-10.957-0.48-12.478l-3.839-1.14l-0.12-1.56c2.559,0,5.198-0.36,7.919-1.08l1.14,0.54c-0.04,1-0.061,1.96-0.061,2.879
	c4.439-2.319,8.219-3.479,11.339-3.479c3.119,0,4.979,1.18,5.579,3.54c4.199-2.359,7.997-3.54,11.397-3.54c2,0,3.52,0.4,4.559,1.2
	c1.041,0.801,1.561,2.3,1.561,4.5v8.158c0,5.159,0.141,8.518,0.42,10.079l0.18,0.779c0.039,0.281,0.49,0.551,1.35,0.811
	s1.689,0.43,2.49,0.51l-0.18,1.74c-1.92-0.121-4.119-0.181-6.6-0.181s-4.68,0.06-6.598,0.181l0.18-1.74
	c0.758-0.08,1.568-0.25,2.43-0.51c0.859-0.26,1.309-0.529,1.35-0.811c0.318-1.398,0.479-5.018,0.479-10.858v-5.819
	c0-1.56-0.459-2.64-1.379-3.239c-0.92-0.6-2.549-0.9-4.889-0.9s-4.51,0.561-6.51,1.68V30.055z"/>
<path fill="#6D6D70" d="M479.309,44.333c-4.24,0-7.439-1.209-9.599-3.629s-3.239-5.64-3.239-9.658c0-4.02,1.189-7.5,3.569-10.439
	c2.379-2.939,5.969-4.409,10.768-4.409c2.439,0,4.569,0.86,6.39,2.58c1.819,1.72,2.729,4.28,2.729,7.679l-2.04,2.459
	c-0.24-0.039-2.13-0.06-5.669-0.06s-7.089,0.141-10.648,0.42v0.54c0,3.64,0.76,6.369,2.28,8.188c1.52,1.82,3.599,2.729,6.238,2.729
	s5.419-0.639,8.339-1.92l0.72,1.801C486.067,43.093,482.789,44.333,479.309,44.333z M484.528,24.596c0-1.839-0.521-3.209-1.56-4.109
	c-1.041-0.9-2.2-1.35-3.479-1.35c-1.88,0-3.5,0.741-4.859,2.22c-1.359,1.48-2.26,3.299-2.699,5.459l12.418-0.48
	C484.468,25.736,484.528,25.156,484.528,24.596z"/>
<path fill="#6D6D70" d="M502.165,21.776l-0.06,8.278c0,5.159,0.159,8.518,0.479,10.079l0.12,0.779
	c0.039,0.281,0.489,0.551,1.35,0.811c0.859,0.26,1.689,0.43,2.49,0.51l-0.181,1.74c-1.919-0.121-4.119-0.181-6.599-0.181
	c-2.48,0-4.679,0.06-6.599,0.181l0.18-1.74c0.76-0.08,1.569-0.25,2.43-0.51c0.859-0.26,1.31-0.529,1.35-0.811
	c0.319-1.398,0.48-4.199,0.48-8.398c0-6.798-0.161-10.957-0.48-12.478l-3.839-1.14l-0.12-1.56c2.559,0,5.198-0.36,7.919-1.08
	l1.14,0.54v2.879c4.438-2.319,8.298-3.479,11.577-3.479c2,0,3.52,0.4,4.56,1.2c1.04,0.801,1.56,2.3,1.56,4.5v8.158
	c0,5.159,0.14,8.518,0.42,10.079l0.181,0.779c0.039,0.281,0.489,0.551,1.35,0.811c0.859,0.26,1.688,0.43,2.489,0.51l-0.18,1.74
	c-1.92-0.121-4.12-0.181-6.599-0.181c-2.48,0-4.68,0.06-6.6,0.181l0.181-1.74c0.759-0.08,1.568-0.25,2.429-0.51
	s1.31-0.529,1.351-0.811c0.319-1.398,0.479-5.018,0.479-10.858v-5.819c0-1.56-0.46-2.64-1.38-3.239c-0.92-0.6-2.48-0.9-4.679-0.9
	C507.164,20.097,504.764,20.657,502.165,21.776z"/>
<path fill="#6D6D70" d="M537.079,44.333c-4.16,0-6.239-2-6.239-5.999c0.039-3.519,0.06-6.749,0.06-9.688s-0.04-6.008-0.119-9.208
	l-3.84,0.06l-0.18-0.66l1.38-2.34c0.56,0.12,1.399,0.201,2.52,0.24l-0.24-5.519l3.959-3.54l1.141,0.54
	c-0.081,2.96-0.12,5.78-0.12,8.458l8.818-0.06l0.3,0.72l-2.16,2.399c-1.359-0.16-3.68-0.26-6.958-0.3v8.039
	c0,5,0.06,8.578,0.18,10.738c0.12,1.8,1.179,2.699,3.18,2.699c1.599,0,3.359-0.459,5.278-1.379l0.721,1.979
	C541.917,43.393,539.358,44.333,537.079,44.333z"/>
</svg>
