<?xml version="1.0" encoding="utf-8"?>
<!-- Generator: Adobe Illustrator 15.0.2, SVG Export Plug-In  -->
<!DOCTYPE svg PUBLIC "-//W3C//DTD SVG 1.1//EN" "http://www.w3.org/Graphics/SVG/1.1/DTD/svg11.dtd" [
	<!ENTITY ns_flows "http://ns.adobe.com/Flows/1.0/">
]>
<svg version="1.1"
	 xmlns="http://www.w3.org/2000/svg" xmlns:xlink="http://www.w3.org/1999/xlink" xmlns:a="http://ns.adobe.com/AdobeSVGViewerExtensions/3.0/"
	 x="0px" y="0px" width="66px" height="130px" viewBox="-0.215 -0.097 66 130"
	 overflow="visible" enable-background="new -0.215 -0.097 66 130" xml:space="preserve">
<defs>
</defs>
<polygon fill="#006BB6" points="31.592,72.242 8.48,72.242 8.48,49.13 31.592,49.13 31.592,72.242 "/>
<path fill="#FFFFFF" d="M14.34,52.917v9.09c0,4.812,2.382,6.594,5.545,6.594c3.34,0,5.836-1.925,5.836-6.663v-9.021h-2.014v9.157
	c0,3.396-1.49,4.904-3.756,4.904c-2.062,0-3.594-1.469-3.594-4.904v-9.157H14.34L14.34,52.917z"/>
<polygon fill="#006BB6" points="56.127,72.242 33.016,72.242 33.016,49.13 56.127,49.13 56.127,72.242 "/>
<path fill="#FFFFFF" d="M40.661,68.407v-6.594c0-2.568-0.023-4.419-0.141-6.367l0.071-0.021c0.759,1.67,1.789,3.431,2.864,5.148
	l4.897,7.833h2.017V52.972h-1.876v6.479c0,2.388,0.046,4.262,0.228,6.323l-0.072,0.021c-0.709-1.601-1.619-3.206-2.744-5.015
	l-4.922-7.809h-2.2v15.435H40.661L40.661,68.407z"/>
<polygon fill="#006BB6" points="56.127,96.774 33.016,96.774 33.016,73.661 56.127,73.661 56.127,96.774 "/>
<path fill="#FFFFFF" d="M48.477,78.625c-0.918-0.826-2.358-1.285-4.329-1.285c-1.603,0-2.862,0.141-3.823,0.322V92.89h1.99v-6.183
	c0.461,0.115,1.009,0.137,1.605,0.137c1.947,0,3.662-0.58,4.712-1.694c0.805-0.805,1.216-1.905,1.216-3.299
	C49.848,80.475,49.323,79.357,48.477,78.625"/>
<path fill="#006BB6" d="M43.965,85.334c-0.642,0-1.215-0.049-1.65-0.16v-5.999c0.344-0.067,1.009-0.16,1.879-0.16
	c2.197,0,3.643,0.979,3.643,3.046C47.836,84.142,46.391,85.334,43.965,85.334"/>
<polygon fill="#006BB6" points="31.569,96.795 8.456,96.795 8.456,73.684 31.569,73.684 31.569,96.795 "/>
<path fill="#FFFFFF" d="M24.707,79.223c-1.351-1.26-3.388-1.904-6.249-1.904c-1.582,0-3.021,0.139-4.26,0.322v15.182
	C15.227,92.959,16.395,93,17.84,93c2.996,0,5.376-0.77,6.847-2.215c1.415-1.417,2.216-3.482,2.216-5.999
	C26.903,82.288,26.102,80.482,24.707,79.223"/>
<path fill="#006BB6" d="M18.227,91.404c-0.78,0-1.512,0-2.014-0.095V79.108c0.527-0.114,1.307-0.203,2.334-0.203
	c4.213,0,6.275,2.265,6.252,5.949C24.799,89.02,22.485,91.426,18.227,91.404"/>
<polygon fill="#006BB6" points="8.48,47.68 56.152,47.68 56.152,0 8.48,0 8.48,47.68 "/>
<path fill="#FFFFFF" d="M49.374,24.826c-0.666,0.943-1.475,1.828-2.092,2.795c0.07-0.764,0.16-1.705-0.141-2.427
	c-0.512-1.558-0.965-3.137-1.107-4.848l0.016-0.655c0.389,1.748,2.105,2.951,1.994,4.908c0.039,0.474-0.107,0.874-0.194,1.294
	l0.03,0.032l0.078-0.091c0.253-0.958,0.381-1.968,0.773-2.866c0.565-1.285,1.264-2.589,0.979-4.145
	C50.566,20.659,50.309,23.11,49.374,24.826"/>
<path fill="#FFFFFF" d="M48.317,14.933c1.129,1.525,1.375,3.952,0.553,5.698c-0.303,0.744-0.519,1.532-0.64,2.352
	c-0.059-0.141-0.069-0.331-0.119-0.489c-0.446-1.709-2.065-2.929-2.734-4.543c-0.208-0.528-0.388-1.073-0.487-1.646
	c0.71,1.315,2.463,1.997,2.94,3.444c0.196,0.37,0.187,0.824,0.303,1.22c0.028,0,0.052-0.02,0.052-0.045
	c-0.207-1.493-0.145-3.057,0.059-4.527c-0.013-0.803-0.088-1.575-0.532-2.194C47.995,14.368,48.124,14.687,48.317,14.933"/>
<path fill="#FFFFFF" d="M47.527,14.641c0.296,1.334-0.134,2.637,0.138,3.984l-0.015,0.011c-0.722-1.43-2.267-2.1-3.327-3.245
	c-0.619-0.679-0.883-1.508-1.033-2.384c0.607,1.466,2.247,1.791,3.188,3.024c0.316,0.286,0.418,0.682,0.621,1.006l0.033-0.034
	c-0.541-1.155-0.725-2.458-1.098-3.688c-0.194-0.537-0.566-1.062-1.07-1.4C46.199,12.17,47.272,13.46,47.527,14.641"/>
<path fill="#FFFFFF" d="M44.221,11.578c0.935,0.833,1.352,1.915,1.629,3.033L46,14.965c-1.353-0.971-2.579-2.28-3.442-3.66
	l-1.055-1.066C42.43,10.63,43.427,10.866,44.221,11.578"/>
<path fill="#FFFFFF" d="M26.549,10.543c1.76-0.869,3.685-1.333,5.781-1.371c4.787,0.006,9.361,2.818,11.445,7.253
	c1.321,2.548,1.697,6.055,0.842,8.932c-0.872,3.398-3.73,6.835-7.059,8.233c-3.75,1.837-9.076,1.378-12.416-1.017
	c-4.645-3.182-6.543-8.666-5.14-14.079C20.856,15.283,23.417,12.036,26.549,10.543"/>
<path fill="#FFFFFF" d="M22.875,10.418c-0.933,0.817-1.581,1.854-2.271,2.821c-0.623,0.768-1.417,1.274-2.124,1.936
	c0.383-0.788,0.396-1.729,0.936-2.453C20.183,11.381,21.606,10.912,22.875,10.418"/>
<path fill="#FFFFFF" d="M17.769,13.267c0.452-0.564,1.03-0.958,1.677-1.123c-1.255,0.863-1.175,2.414-1.575,3.704
	c-0.128,0.478-0.351,0.917-0.458,1.404l0.034,0.026c0.21-0.554,0.577-1.073,1.032-1.525c0.897-0.827,2.219-1.339,2.658-2.559
	c-0.02,1.696-1.437,3.028-2.791,3.982c-0.561,0.489-1.099,1.049-1.403,1.676c-0.032-0.426,0.064-0.858,0.032-1.315
	C16.829,16.058,16.722,14.368,17.769,13.267"/>
<path fill="#FFFFFF" d="M15.223,18.333c-0.039-1.501,0.582-2.728,1.462-3.844c0.022-0.013,0.044-0.039,0.073-0.034
	c-0.965,1.469-0.166,3.318-0.209,4.988l-0.128,1.709c0.017,0.013,0.017,0.062,0.062,0.043c0.056-0.188,0.071-0.394,0.108-0.591
	c0.229-1.378,1.426-2.358,2.473-3.31c0.225-0.245,0.415-0.502,0.534-0.792c-0.085,0.686-0.301,1.378-0.587,2.014
	c-0.812,1.588-2.318,2.888-2.591,4.705C16.29,21.483,15.1,20.181,15.223,18.333"/>
<path fill="#FFFFFF" d="M14.489,20.467c0.109-0.47,0.193-0.954,0.396-1.385c-0.389,1.984,0.945,3.412,1.383,5.133
	c0.184,0.641,0.23,1.333,0.49,1.936c0.026,0.015,0.046-0.013,0.062-0.03c-0.652-1.83,0.289-3.526,1.234-4.956
	c0.227-0.39,0.363-0.82,0.475-1.264c0.1,0.827-0.105,1.778-0.229,2.635c-0.227,1.093-0.571,2.129-0.869,3.191
	c-0.197,0.658-0.146,1.411-0.044,2.103l-0.095-0.078c-0.697-1.276-2.066-2.273-2.471-3.671
	C14.485,22.969,14.262,21.68,14.489,20.467"/>
<path fill="#FFFFFF" d="M14.426,24.341c0.152,2.105,2.414,3.217,3.464,4.956c0.249,0.357,0.466,0.749,0.794,1.047
	c-0.055-0.223-0.26-0.413-0.338-0.64c-0.367-0.731-0.502-1.601-0.412-2.485c0.104-1.071,0.553-2.07,0.383-3.202
	c0.919,1.988,0.64,4.469,1.154,6.62c0.135,0.471,0.406,0.889,0.584,1.341c-1.893-1.289-4.473-2.516-5.312-4.878
	C14.39,26.284,14.351,25.275,14.426,24.341"/>
<path fill="#FFFFFF" d="M15.558,29.169c1.054,2.388,3.694,2.585,5.471,4.039c0.323,0.288,0.669,0.535,1.034,0.708l0.02-0.02
	c-0.408-0.37-0.876-0.788-1.164-1.263c-1.033-1.443-0.672-3.463-1.447-5.012c0.705,0.844,1.346,1.717,1.771,2.678
	c0.639,1.564,0.879,3.33,2.348,4.513c-1.592-0.521-3.45-0.374-4.85-1.354C17.211,32.518,15.844,30.924,15.558,29.169"/>
<path fill="#FFFFFF" d="M18.271,33.624c1.687,1.925,4.454,1.283,6.708,1.785c0.316,0.045,0.61,0.171,0.947,0.121
	c-0.268-0.173-0.643-0.154-0.937-0.305c-1.765-0.625-2.024-2.535-2.985-3.822c1.227,0.811,2.256,1.91,3.388,2.97
	c0.813,0.711,1.789,1.041,2.819,1.252c-0.247,0.089-0.571,0.062-0.84,0.134c-1.846,0.456-3.906,1.198-5.869,0.532
	C20.227,35.891,18.911,34.882,18.271,33.624"/>
<path fill="#FFFFFF" d="M41.229,38.106c-1.905,0.714-3.896-0.03-5.384-1.16c-0.599-0.383-1.134-0.935-1.917-0.883
	c-0.279-0.006-0.554,0.004-0.793,0.076c1.447,0.673,2.792,1.599,4.021,2.789c-0.209,0.236-0.475,0.457-0.728,0.66
	c-1.183-1.274-2.501-2.503-3.968-3.221c-0.283,0.039-0.561,0.209-0.817,0.348c-1.196,0.757-2.378,1.729-3.267,2.916l-0.764-0.627
	c1.221-1.231,2.57-2.191,4.041-2.879c-1.447-0.456-2.395,0.757-3.491,1.374c-1.282,0.896-3.126,1.315-4.677,0.699
	c-0.836-0.318-1.638-0.783-2.244-1.538c1.223,0.839,3.037,0.928,4.422,0.383c1.863-0.807,3.791-1.83,6.033-1.341
	c0.352,0.006,0.695,0.357,1.025,0.059c1.664-0.433,3.551-0.134,4.984,0.627l1.482,0.591c1.371,0.508,3.151,0.37,4.326-0.472
	C42.913,37.26,42.088,37.803,41.229,38.106"/>
<path fill="#FFFFFF" d="M43.276,36.139c-2.144,0.807-4.297-0.184-6.35-0.515l-0.391-0.052v-0.011c0.978-0.223,1.93-0.515,2.71-1.222
	c1.151-1.103,2.175-2.239,3.45-3.113c-0.947,1.213-1.045,2.942-2.608,3.723c-0.392,0.253-0.876,0.298-1.278,0.491
	c0.57,0.013,1.092-0.192,1.659-0.249c2.097-0.329,4.495,0.006,5.964-1.778C45.885,34.658,44.522,35.7,43.276,36.139"/>
<path fill="#FFFFFF" d="M44.461,33.959c-1.09,0.294-2.258,0.389-3.322,0.75c1.797-1.544,1.697-3.933,2.898-5.75
	c0.379-0.515,0.696-1.056,1.143-1.542c-0.728,1.467-0.414,3.366-1.251,4.79c-0.322,0.562-0.788,1.11-1.298,1.558
	c0.168-0.009,0.316-0.154,0.459-0.249c1.367-1.36,3.145-1.741,4.62-2.847c0.589-0.472,1.132-1.086,1.392-1.752
	C48.821,31.17,46.579,33.286,44.461,33.959"/>
<path fill="#FFFFFF" d="M47.163,30.117c-0.846,0.552-1.701,1.064-2.516,1.694v-0.073c1.248-2.073,0.637-4.913,1.402-7.187
	l0.287-0.761c-0.16,1.415,0.457,2.617,0.416,4.041c-0.048,0.857-0.326,1.618-0.779,2.304h0.076c0.612-0.798,1.088-1.648,1.8-2.415
	c1.105-1.066,2.23-2.157,2.375-3.638C50.598,26.552,49.213,28.717,47.163,30.117"/>
<path fill="#006BB6" d="M37.602,29.953l0.088-0.124c0.381-0.298,0.795-0.58,1.132-0.945h0.046c-0.078-0.026-0.176,0.05-0.262,0.013
	c-0.18-0.083-0.211-0.243-0.211-0.426l-0.78-0.807l-0.044-0.119c-0.058,0.151-0.172,0.247-0.285,0.359
	c0.007,0.104-0.032,0.255,0.089,0.325c0.255,0.084,0.584,0.251,0.641,0.547c-0.103,0.281-0.636,0.532-0.308,0.839
	C37.816,29.764,37.559,29.823,37.602,29.953"/>
<path fill="#006BB6" d="M33.059,19.64c0.146,0.082,0.227-0.069,0.353-0.102c0.175,0.02,0.313,0.173,0.422,0.286
	c0.114,0.052,0.225-0.018,0.324-0.056c0.071-0.528,0.731-0.45,0.929-0.946l-0.121,0.045c-0.051-0.071-0.176-0.041-0.172-0.153
	c0.108-0.104,0.249-0.262,0.381-0.305c-0.568-0.357-1.162-0.662-1.811-0.826c-0.253-0.059-0.521-0.065-0.762-0.154
	c0.121,0.364,0.014,0.896,0.089,1.317l0.454,0.149c0.139-0.221,0.429-0.264,0.557-0.474c0.082-0.071,0.175,0,0.242,0.076
	c0.02,0.171-0.026,0.342-0.078,0.506C33.695,19.348,33.286,19.389,33.059,19.64"/>
<path fill="#006BB6" d="M39.828,23.908c-0.269,0.853-0.582,1.683-1.114,2.427c-0.207,0.266-0.415,0.636-0.686,0.774l0.578,0.511
	c0.029-0.033,0.013-0.084,0.021-0.128c0-0.076,0.034-0.164,0.132-0.153c0.276-0.007,0.283,0.292,0.443,0.445
	c-0.032,0.243,0.177,0.433,0.106,0.656c1.603-1.692,2.402-3.762,2.553-6.055l0.084-0.102c-0.571,0.056-1.175,0.017-1.764,0.026
	l-0.141-0.045c0.039,0.387-0.064,0.764-0.086,1.145l0.205,0.227c0.061,0.089,0.039,0.223-0.043,0.292
	C40.027,23.986,39.915,23.982,39.828,23.908"/>
<path fill="#006BB6" d="M38.298,18.286c-0.212-0.405-0.556-0.768-0.851-1.129l-0.029,0.078c-0.587,0.607-1.229,1.237-1.785,1.86
	c0.035,0.076,0.1,0.145,0.173,0.184c0.021-0.153,0.106-0.288,0.121-0.445c0.149-0.208,0.381-0.076,0.575-0.033
	c0.305-0.069,0.591,0.071,0.902,0.067c0.229,0.113,0.251,0.405,0.459,0.52c0.057,0.08,0.013,0.177-0.065,0.24
	c0.065,0.478,0.292-0.125,0.534-0.013c0.102,0.039,0.229,0.026,0.303,0.134c0.039,0.197,0.281,0.16,0.295,0.348
	c-0.02,0.095-0.121,0.121-0.188,0.173c0.061,0.19-0.192,0.31-0.106,0.515c0.371,0.069,0.383-0.357,0.555-0.547
	c-0.096-0.329-0.165-0.667-0.355-0.958c-0.207-0.045-0.335-0.294-0.545-0.337C37.883,18.781,38.35,18.528,38.298,18.286"/>
<path fill="#006BB6" d="M32.633,31.553c0.469-0.16,1.016-0.134,1.524-0.218c-0.1-0.039-0.203-0.061-0.281-0.165
	c-0.296-0.02-0.437-0.329-0.532-0.564c-0.045-0.171,0.072-0.312,0.143-0.459c-0.127-0.259-0.521-0.071-0.752-0.164
	c-0.062-0.052-0.108-0.128-0.195-0.143l0.094,0.143C32.633,30.504,32.696,31.039,32.633,31.553"/>
<path fill="#006BB6" d="M33.042,26.595c0.164,0.032,0.048,0.212,0.169,0.274c0.262-0.082,0.46,0.221,0.666,0.03
	c-0.011-0.298,0.327-0.272,0.511-0.348c0.287-0.171,0.609-0.4,0.58-0.783l-0.048-0.054c-0.196,0-0.296,0.151-0.441,0.27
	c-0.182,0.104-0.271-0.19-0.415-0.119c0.006,0.032,0.039,0.045,0.064,0.058c0.037,0.045,0.05,0.139,0,0.184
	c-0.217,0.197-0.318-0.098-0.521-0.078v0.078c0.007,0.043-0.013,0.112-0.076,0.086c-0.129-0.21-0.389-0.132-0.516-0.316
	c-0.08-0.045-0.158,0.013-0.215,0.063c-0.045,0.097-0.249-0.013-0.197,0.153c-0.158,0.056-0.177,0.227-0.291,0.331
	c-0.199-0.035-0.286,0.188-0.473,0.184c0.02,0.037,0,0.102,0.057,0.106c0.117,0.052,0.229,0.062,0.37,0.045
	C32.456,26.457,32.774,26.712,33.042,26.595"/>
<path fill="#006BB6" d="M34.917,24.114c0.012,0.095,0.024,0.221,0.104,0.303c0.249-0.037,0.143,0.305,0.37,0.275
	c0.127-0.039,0.008-0.147,0.043-0.229c-0.035-0.19-0.221-0.209-0.348-0.324c-0.016-0.037,0.012-0.069,0.029-0.1
	C35.021,23.986,34.977,24.044,34.917,24.114"/>
<path fill="#006BB6" d="M34.629,15.346c-0.643-0.229-1.348-0.325-2.047-0.431l0.062,0.139l-0.012,1.722l0.166-0.032
	c1.054,0.145,2.018,0.482,2.854,1.162l0.043,0.134c0.283-0.4,0.717-0.744,1.054-1.123l0.317-0.186l-0.153-0.062
	C36.215,16.084,35.456,15.64,34.629,15.346"/>
<path fill="#006BB6" d="M22.813,22.435l0.139,1.17c0.057,0.45,0.256,0.883,0.24,1.328c0.07-0.095,0.026-0.288,0.199-0.307
	c-0.071-0.138,0.135-0.26,0.018-0.381c0.057-0.303,0.093-0.616,0.363-0.837c0.324-0.013,0.348-0.439,0.673-0.458
	c0.165-0.009,0.269,0.216,0.34,0.292c-0.206-0.247-0.194-0.653-0.144-0.933L24.5,22.373c-0.588-0.011-1.205,0.035-1.765-0.045
	L22.813,22.435L22.813,22.435z"/>
<path fill="#006BB6" d="M34.204,25.41c0.15-0.158,0.473-0.154,0.488-0.381c-0.225-0.035-0.338,0.086-0.488,0.21
	C34.184,25.286,34.115,25.375,34.204,25.41"/>
<path fill="#006BB6" d="M38.245,22.221l0.196,0.194c0.194,0.134,0.065,0.42,0.272,0.535c0.244,0.127,0.336,0.413,0.445,0.627
	c0.037-0.054,0.037-0.125,0.059-0.182c0.085-0.351,0.074-0.744,0.182-1.086C39.018,22.327,38.577,22.366,38.245,22.221"/>
<path fill="#006BB6" d="M35.683,26.673c0.216,0.056,0.363,0.325,0.634,0.24c0.231-0.125,0.609,0.076,0.764-0.165
	c-0.026-0.236,0.18-0.407,0.281-0.61l0.073-0.018c0.13,0.132,0.124,0.331,0.18,0.474c0.177-0.188,0.317-0.4,0.476-0.595
	c0.42-0.61,0.777-1.263,0.928-1.962c-0.17,0.006-0.344,0.035-0.499,0.086c-0.187-0.011-0.409,0.098-0.567-0.03
	c-0.056-0.05-0.097,0.024-0.088,0.076c-0.065,0.095-0.128,0.214-0.275,0.171c-0.114-0.05-0.114-0.171-0.153-0.259
	c0.009,0.069-0.017,0.134-0.03,0.197c-0.135,0.138-0.18,0.272-0.272,0.424c-0.134,0.147-0.351,0.097-0.491,0.216
	c-0.025,0.307-0.361,0.24-0.552,0.337c-0.013,0.039,0.03,0.045,0.05,0.078c0.091,0.024,0.21,0.024,0.273-0.065
	c0.27,0.071,0.209-0.266,0.365-0.381c0.134-0.02,0.262-0.134,0.398-0.043c0.141,0.168,0.172,0.415,0.15,0.64
	c-0.15,0.151-0.073,0.4-0.182,0.578c0.023,0.21-0.231,0.305-0.197,0.515c-0.082,0.095-0.225,0.108-0.35,0.108
	c-0.5-0.19-1.029-0.312-1.59-0.364c-0.051,0.02-0.082,0.063-0.074,0.124C35.164,26.565,35.443,26.571,35.683,26.673"/>
<path fill="#006BB6" d="M31.895,32.239l0.064-0.097l-0.196,0.052c-2.478-0.171-4.669-1.047-6.479-2.797l-0.02,0.078l-1.309,1.315
	c1.982,1.715,4.219,2.821,6.771,3.171c0.408,0.069,0.874,0.03,1.266,0.151l-0.098-0.151V32.239L31.895,32.239z"/>
<path fill="#006BB6" d="M29.336,25.39c0.679,0.56,1.442,0.906,2.288,1.056c0.044-0.173-0.026-0.387,0.063-0.534
	c0.062-0.143,0.232-0.134,0.361-0.11c0.075-0.007,0.123-0.1,0.075-0.167c-0.182-0.035-0.1-0.238-0.165-0.353
	c0.01-0.062,0.117-0.052,0.09-0.134c-0.129-0.102,0.062-0.214-0.044-0.322c0.03-0.022,0.054-0.061,0.087-0.083
	c-0.385,0.163-0.795-0.073-1.134-0.225c-0.169-0.095-0.409-0.188-0.446-0.394C30.241,24.57,29.717,24.977,29.336,25.39"/>
<path fill="#006BB6" d="M28.682,23.409c-0.062-0.033-0.068-0.026-0.121,0.03c-0.032,0-0.068,0.006-0.095-0.013
	c0-0.361-0.405-0.145-0.558-0.333c0.177,0.327,0.271,0.703,0.456,1.032c0.114,0.292,0.368,0.521,0.484,0.809
	c0.119-0.231,0.361-0.415,0.534-0.623c0.012-0.095-0.008-0.179-0.061-0.249c-0.057-0.134-0.004-0.322-0.107-0.437
	c-0.162,0.056,0.058,0.221-0.014,0.318c-0.066,0.043-0.145-0.015-0.148-0.078c-0.148-0.024-0.262-0.154-0.309-0.288
	C28.867,23.504,28.715,23.471,28.682,23.409"/>
<path fill="#006BB6" d="M29.903,23.592c-0.041,0.158-0.147,0.296-0.264,0.414l0.021,0.011c0.153-0.108,0.262-0.303,0.459-0.316
	L29.903,23.592L29.903,23.592z"/>
<path fill="#006BB6" d="M31.746,29.767c-1.546-0.078-2.896-0.641-4.099-1.538c0.036,0.151,0.24,0.249,0.184,0.439
	c-0.108,0.173-0.329,0.177-0.506,0.173c-0.364-0.058-0.633,0.216-0.972,0.253c-0.313,0.095-0.422-0.288-0.708-0.253
	c1.766,1.541,3.783,2.507,6.15,2.635l0.178,0.121l-0.078-0.216v-1.677L31.746,29.767L31.746,29.767z"/>
<path fill="#006BB6" d="M24.883,28.94c-0.216-0.153-0.408-0.398-0.59-0.61c-0.21-0.056-0.426-0.204-0.534-0.405
	c-0.063-0.073-0.005-0.197-0.076-0.249l-0.077,0.095c-0.223,0.108-0.301-0.121-0.455-0.214c-0.199-0.108-0.102-0.484-0.371-0.415
	c-0.1-0.004-0.133-0.119-0.195-0.182c-0.246,0.024-0.312-0.249-0.445-0.383c-0.026,0.059,0,0.134-0.076,0.171
	c-0.253,0.059-0.342-0.253-0.518-0.381c-0.043,0.018-0.072,0.072-0.138,0.059c-0.151-0.134-0.253-0.327-0.262-0.534
	c-0.208-0.238-0.112-0.61-0.073-0.898c0.036-0.076,0.146-0.119,0.125-0.214c0.059-0.134,0.199-0.147,0.333-0.154
	c0.05,0.028,0.102,0.078,0.126,0.124c0.082-0.054,0.268,0.004,0.196-0.18c0.108-0.095,0.269-0.13,0.413-0.154
	c0.102,0.128,0.152,0.275,0.288,0.394l-0.089-0.139c-0.153-0.623-0.272-1.257-0.307-1.932c0.006-0.037-0.08-0.056-0.031-0.093
	l0.012,0.018c0.008-0.139-0.005-0.26,0.02-0.355l-0.172,0.063l-1.768-0.011c0.103,2.031,0.643,3.878,1.559,5.577
	c0.449,0.837,1.111,1.592,1.688,2.375l1.266-1.309L24.883,28.94L24.883,28.94z"/>
<path fill="#006BB6" d="M26.915,14.109c-0.393,0.272-0.754,0.627-1.161,0.87c0.472,0.298,0.858,0.794,1.283,1.188l0.046,0.121
	c1.081-1.034,2.395-1.638,3.811-1.932c0.336-0.033,0.676-0.145,1.002-0.076c-0.023-0.604-0.078-1.233-0.014-1.83
	C30.042,12.558,28.393,13.116,26.915,14.109"/>
<path fill="#006BB6" d="M25.405,20.739c-0.07,0.305-0.031,0.66-0.153,0.947c0.224-0.104,0.548-0.065,0.794-0.032
	c-0.143-0.076-0.023-0.262-0.107-0.361c-0.02-0.158-0.046-0.355,0.107-0.458c-0.018-0.262,0.26-0.394,0.288-0.63
	c0.069-0.266,0.372-0.086,0.519-0.227c0.096-0.052,0.014-0.141,0.014-0.209c0.127-0.173,0.324-0.165,0.476-0.262
	c0.108-0.164,0.249-0.342,0.427-0.441c0.383,0.013,0.389-0.523,0.75-0.537c-0.495-0.375-0.967-0.876-1.404-1.309
	C26.239,18.269,25.639,19.424,25.405,20.739"/>
<path fill="#006BB6" d="M25.645,23.318c0.02-0.115-0.15-0.145-0.134-0.26c0.124-0.236,0.007-0.617,0.317-0.718
	c-0.221,0.039-0.417,0.083-0.607-0.056l0.092,0.151c0.015,0.42,0.182,0.82,0.09,1.246C25.477,23.56,25.495,23.396,25.645,23.318"/>
<polygon fill="#006BB6" points="27.397,27.904 27.374,27.86 27.397,27.938 27.397,27.904 "/>
<path fill="#006BB6" d="M25.284,15.511l-0.688,0.872c-1.123,1.542-1.657,3.329-1.816,5.272l1.742-0.033l0.165,0.065
	c-0.069-0.045-0.054-0.121-0.077-0.184c0.141-1.813,0.775-3.425,2.026-4.772c-0.482-0.417-0.935-0.861-1.341-1.339L25.284,15.511
	L25.284,15.511z"/>
<path fill="#006BB6" d="M30.649,27.391c0.141-0.149,0.305-0.249,0.479-0.312c-0.564,0.115-1.061-0.292-1.543-0.515
	c-0.274-0.204-0.629-0.368-0.793-0.673c-0.377,0.457-0.82,0.932-1.264,1.296c0.194,0.013,0.303,0.229,0.469,0.324
	c0.954,0.794,2.14,1.175,3.243,1.449l-0.301-0.143c-0.229-0.257-0.556-0.564-0.567-0.926C30.602,27.815,30.576,27.564,30.649,27.391
	"/>
<path fill="#006BB6" d="M26.305,22.34l-0.05,0.335c-0.075,0.199-0.324,0.052-0.437,0.186c-0.082,0.127,0.004,0.26,0.073,0.361
	c-0.177,0.409,0.402,0.537,0.394,0.902c0.18,0.229-0.023,0.558,0.231,0.764c0.056,0.413-0.058,0.971,0.306,1.296l0.064,0.394
	c0.073,0.272-0.326,0.201-0.275,0.446c0.078-0.039,0.094,0.062,0.102,0.086v-0.011c0.49-0.567,1.055-1.164,1.632-1.664l-0.242-0.242
	c-0.45-0.675-0.808-1.393-0.976-2.181l-0.184-0.093c-0.01,0.201-0.104,0.361-0.092,0.564L26.79,23.56
	c-0.134-0.004-0.217-0.115-0.33-0.184c-0.027-0.069-0.096-0.184,0.015-0.242c0.062-0.004,0.106,0.015,0.153,0.043
	c0.055-0.067,0.028-0.169,0.062-0.257c0.016-0.154-0.117-0.294-0.023-0.426c0.123-0.013,0.212,0.132,0.262,0.214
	c0.121,0.039,0.217-0.061,0.318-0.106c0-0.108,0.15-0.255-0.014-0.318c0.092-0.249,0.026-0.508-0.013-0.749
	c-0.069-0.21-0.303-0.173-0.476-0.153c-0.514,0.164,0.084,0.551-0.043,0.87C26.629,22.435,26.44,22.264,26.305,22.34"/>
<path fill="#006BB6" d="M42.586,22.31l-0.106-0.078l0.062,0.173c-0.1,2.114-0.805,3.98-2.014,5.642
	c-0.233,0.279-0.454,0.621-0.749,0.818c0.484,0.381,1.02,0.954,1.418,1.393l0.049-0.095c1.945-2.217,3.051-4.787,3.17-7.757
	l0.077-0.153l-0.095,0.045L42.586,22.31L42.586,22.31z"/>
<path fill="#006BB6" d="M25.374,14.531l0.031-0.087c1.854-1.689,4.016-2.617,6.49-2.732l-0.057-0.151l-0.02-1.525l0.053-0.177
	c-2.553,0.102-4.822,0.971-6.834,2.418c-0.39,0.269-0.731,0.673-1.125,0.904h0.057C24.471,13.546,24.949,14.076,25.374,14.531"/>
<path fill="#006BB6" d="M31.809,14.965c-1.614,0.115-3.014,0.788-4.238,1.8c0.484,0.333,0.912,0.874,1.352,1.259
	c0.033-0.042,0.065-0.087,0.096-0.139c0.605-0.428,1.229-0.824,1.94-1.001c0.313-0.033,0.628-0.184,0.956-0.108
	c-0.066-0.599-0.066-1.257,0-1.873L31.809,14.965L31.809,14.965z"/>
<path fill="#006BB6" d="M31.895,17.479c-1.021,0.136-1.962,0.485-2.709,1.279h0.137c0.154,0.153,0.4,0.119,0.516,0.324
	c0.058,0.115-0.109,0.102-0.102,0.195c0.031,0.028,0.077,0.032,0.102,0.078c0.121,0.043,0.095-0.069,0.143-0.121
	c0.155-0.156,0.182,0.154,0.335,0.154c0.106-0.069,0.26-0.078,0.333,0.043c0.104-0.088,0.32-0.006,0.353-0.168
	c0.199-0.212,0.089-0.534,0.381-0.668c0.102,0.056-0.007,0.153,0.032,0.24c0.195,0.082,0.418-0.165,0.578,0.034
	C31.848,18.453,31.881,17.938,31.895,17.479"/>
<path fill="#006BB6" d="M31.959,20.326c-0.188,0.318-0.506,0.389-0.807,0.478c-0.082,0.099-0.062,0.324-0.26,0.303
	c-0.062,0.143-0.279,0.223-0.194,0.428c-0.106,0.214-0.054,0.493-0.11,0.731c-0.377,0.233-0.268-0.314-0.454-0.429l-0.067,0.108
	c-0.073,0.02-0.125-0.026-0.178-0.074c-0.058-0.023-0.152-0.043-0.203,0.011c-0.084,0.141-0.209,0.253-0.18,0.444
	c-0.036,0.114-0.227,0.078-0.201,0.199c0.211-0.006,0.438-0.045,0.641-0.091c0.147,0.039,0.266-0.069,0.416-0.073
	c0.047,0.023,0.109,0.073,0.086,0.151H30.5c0.103-0.078,0.146-0.193,0.103-0.305c0.012-0.134,0.16-0.134,0.246-0.173
	c0.082,0.039,0.03,0.121,0.045,0.186c0.286,0.106-0.068,0.315-0.107,0.467c-0.076,0.124,0,0.396-0.242,0.357
	c-0.044-0.011-0.072-0.056-0.061-0.11h-0.035c-0.004,0.106,0.071,0.244,0.174,0.288c0.174-0.145,0.182-0.394,0.438-0.426
	c0.132-0.139-0.059-0.355,0.141-0.469c0.329-0.007,0.681-0.147,0.945,0.119c-0.021,0.117-0.062,0.169,0.032,0.262
	c-0.066,0.147-0.107,0.305-0.229,0.426c0.029,0.082,0.006,0.184-0.068,0.242c-0.086,0.387-0.531,0.201-0.791,0.335
	c0.402,0.305,0.883,0.42,1.404,0.381c0.272-0.011,0.15-0.349,0.291-0.5c0.09-0.443,0.498-0.141,0.744-0.262
	c0.094-0.188,0.191-0.374,0.215-0.59c-0.158-0.1-0.221-0.294-0.171-0.474c-0.106-0.149-0.095-0.416-0.331-0.441
	c-0.037-0.05-0.006-0.117,0.025-0.149c-0.004-0.141,0.133-0.186,0.172-0.294c-0.146-0.095-0.106-0.305-0.096-0.429
	c-0.248,0.074-0.272-0.251-0.456-0.322c-0.046-0.147-0.204-0.171-0.331-0.197c-0.305,0.147-0.355-0.229-0.584-0.316
	c-0.023-0.071-0.078-0.173,0-0.229c0.117-0.095,0.266-0.013,0.4-0.022l-0.108-0.056c-0.1-0.112-0.322-0.043-0.456,0
	C31.936,19.939,31.881,20.168,31.959,20.326"/>
<path fill="#006BB6" d="M22.171,21.676l-0.044-0.251c0.121-2.027,0.769-3.829,1.906-5.443c0.283-0.324,0.493-0.729,0.85-0.973
	c-0.412-0.387-0.844-0.837-1.277-1.264l-0.044-0.173c-1.811,2.016-2.927,4.313-3.253,6.94c-0.072,0.38-0.021,0.774-0.1,1.164
	C20.845,21.622,21.534,21.622,22.171,21.676"/>
<path fill="#006BB6" d="M39.356,29.267c-0.18,0.346-0.573,0.569-0.871,0.837c-0.414,0.413-1.086,0.502-1.297,1.099
	c-0.221,0.201-0.296,0.52-0.607,0.636c-0.117,0.303-0.441,0.286-0.625,0.504c-0.532,0.478-0.876-0.303-1.358-0.396l-0.974,0.171
	c-0.338,0-0.673,0.121-0.99,0.013c0.047,0.645,0.047,1.346,0,1.992l0.121-0.076c3.062-0.132,5.704-1.296,7.971-3.353l-1.339-1.278
	L39.356,29.267L39.356,29.267z"/>
<path fill="#006BB6" d="M32.6,11.545c0-0.056,0.026-0.106,0.061-0.149c0.089-0.052,0.162,0.026,0.199,0.086
	c0.009,0.091,0.047,0.242-0.028,0.294c0.075,0.013,0.114-0.043,0.183-0.043c1.453,0.106,2.803,0.532,4.01,1.218v-0.03
	c0.246-0.123,0.564-0.281,0.82-0.064c0.305-0.115,0.361,0.259,0.607,0.305c0.301,0.178,0.639,0.511,0.676,0.859
	c0.053,0.112,0.235,0.195,0.259,0.316c0.204-0.431,0.61-0.738,0.96-1.112l0.215-0.089c-1.916-1.83-4.197-2.84-6.74-3.191
	c-0.404-0.069-0.851-0.03-1.238-0.149C32.661,10.295,32.639,10.98,32.6,11.545"/>
<path fill="#006BB6" d="M32.6,14.28c0.242-0.084,0.489,0.02,0.733,0.023c1.244,0.206,2.421,0.604,3.416,1.374
	c-0.119-0.13-0.267-0.272-0.292-0.459c0.02-0.023,0.045-0.03,0.078-0.023c0.013-0.199-0.199-0.301-0.228-0.478
	c0.028-0.037,0.075-0.076,0.139-0.057c0.214,0.204,0.396,0.426,0.558,0.653c0.141-0.056,0.256,0.033,0.357,0.108
	c0.184,0.108,0.068,0.344,0.209,0.472c0.024,0.374,0.482,0.584,0.457,0.958c0.004,0.089,0.115,0.02,0.151,0.065l0.383,0.467
	c-0.071,0.091-0.013,0.199,0.065,0.26c0.17,0.08,0.266-0.139,0.435-0.106c0.247,0.141-0.037,0.305-0.013,0.458
	c0.095,0.004,0.219-0.076,0.294,0.02c0.03,0.138-0.114,0.227-0.173,0.318c0,0.139,0.114,0.108,0.216,0.139
	c0.114-0.007,0.185,0.134,0.153,0.229c0.318,0.331-0.095,0.686,0.057,1.034c0.1,0.227-0.025,0.45-0.166,0.623
	c0.008,0.281-0.25,0.45-0.347,0.686l-0.324,0.063c-0.173,0.171,0.147,0.383-0.026,0.491l0.712,0.013l-0.078-0.076
	c-0.099-0.279-0.075-0.655,0.095-0.904c0.109-0.227,0.135-0.502,0.338-0.699c0.046-0.011,0.126-0.095,0.167,0
	c0.011,0.216-0.007,0.465-0.108,0.656c0.203,0.292,0.176,0.672,0.195,1.034c0.629-0.039,1.246-0.05,1.864-0.043l-0.056-0.121
	c-0.098-1.175-0.34-2.287-0.829-3.291c-0.134,0.006-0.229,0.115-0.381,0.076c-0.05-0.017-0.085-0.069-0.077-0.125
	c-0.254-0.242-0.414-0.56-0.697-0.776c-0.326,0.032-0.472-0.344-0.764-0.381c-0.26-0.108-0.082-0.528-0.459-0.411
	c-0.184-0.078-0.363-0.218-0.4-0.428c0-0.331-0.062-0.686-0.358-0.902c-0.231-0.082-0.325,0.221-0.554,0.173
	c-0.128-0.065-0.072-0.229-0.113-0.337c-0.041-0.095-0.148-0.165-0.129-0.292c0.299-0.394-0.363-0.387-0.217-0.777
	c-0.041-0.279-0.324-0.387-0.471-0.608c-0.984-0.445-1.969-0.749-3.079-0.882c-0.274-0.039-0.528,0.017-0.764-0.108l0.063,0.119
	C32.618,13.096,32.661,13.726,32.6,14.28"/>
<path fill="#006BB6" d="M39.551,14.933c0.134,0.032,0.172,0.19,0.264,0.285c0.461,0.249,0.582,0.745,0.988,1.023
	c0.229,0.478,0.758,0.846,0.774,1.391c0.552,1.22,0.929,2.509,0.965,3.946l-0.048,0.076c0.055,0,0.106-0.026,0.149-0.056
	l1.833-0.033c-0.121-0.177-0.072-0.437-0.102-0.653c-0.245-2.827-1.45-5.248-3.343-7.383c-0.351,0.47-0.827,0.909-1.266,1.361
	L39.551,14.933L39.551,14.933z"/>
<path fill="#FFFFFF" d="M32.86,11.245c0.055-0.102,0.199-0.065,0.277-0.035l0.912-0.392c0.368,0.03,0.775,0.076,0.993,0.381v0.045
	c-0.229,0.188-0.521,0.34-0.826,0.212c-0.42,0.084-1.006,0.325-1.341-0.106C32.86,11.318,32.823,11.273,32.86,11.245"/>
<path fill="#FFFFFF" d="M38.318,12.397c0.128,0.041,0.244,0.098,0.288,0.231c-0.035,0.143,0.134,0.264,0.029,0.379
	c-0.344,0.088-0.373-0.296-0.64-0.392c-0.037-0.054-0.05-0.117-0.044-0.186C38.071,12.285,38.186,12.525,38.318,12.397"/>
<text transform="matrix(1 0 0 1 0 115.5884)" fill="#006BB6" font-family="'Myriad-Italic'" font-size="9.4503">Empowered liv</text>
<text transform="matrix(1 0 0 1 55.312 115.5884)" fill="#006BB6" font-family="'Myriad-Italic'" font-size="9.4503">es</text>
<text transform="matrix(1 0 0 1 63.0366 115.5884)" fill="#006BB6" font-family="'Myriad-Italic'" font-size="9.4503">. </text>
<text transform="matrix(1 0 0 1 0.6348 126.9321)" fill="#006BB6" font-family="'Myriad-Italic'" font-size="9.4503">Resilient nations</text>
<text transform="matrix(1 0 0 1 62.3765 126.9321)" fill="#006BB6" font-family="'Myriad-Italic'" font-size="9.4503">. </text>
</svg>
